{"glyphs":{":":{"x_min":0,"x_max":252,"ha":252,"o":""},"$":{"x_min":0,"x_max":444,"ha":444,"o":"m 407 489 l 381 394 q 331 416 270 416 q 197 416 197 369 q 197 339 265 310 q 325 285 353 260 q 392 224 392 171 q 392 38 240 15 q 230 -76 229 -128 l 163 -128 q 167 -103 180 10 q 110 10 40 26 l 65 120 q 121 99 179 99 q 277 99 277 148 q 278 180 210 211 q 150 239 124 263 q 84 299 84 348 q 84 411 126 451 q 167 491 232 500 q 245 616 245 648 l 311 648 q 307 628 292 504 q 369 503 407 489 z m 0 515 z"},"?":{"x_min":0,"x_max":353,"ha":353,"o":"m 335 519 q 335 458 292 409 q 249 361 187 336 l 170 262 l 108 262 l 101 366 q 212 402 212 476 q 212 554 49 560 l 69 652 q 204 652 266 623 q 335 591 335 519 z m 194 95 q 194 54 166 24 q 138 -5 96 -5 q 64 -5 47 15 q 30 35 30 64 q 30 106 58 134 q 86 163 128 163 q 194 163 194 95 z"},"<":{"x_min":0,"x_max":504,"ha":504,"o":"m 451 392 l 166 250 l 164 239 l 420 99 l 373 7 l 53 211 l 60 279 l 422 483 z"},"'":{"x_min":0,"x_max":246,"ha":246,"o":"m 220 636 q 220 582 186 487 q 159 409 124 343 l 84 343 q 75 438 75 517 q 75 603 83 631 q 99 694 161 694 q 220 694 220 636 z"},"=":{"x_min":0,"x_max":504,"ha":504,"o":"m 458 390 l 448 302 l 69 302 l 78 390 z m 436 186 l 426 98 l 47 98 l 57 186 z"},"a":{"x_min":0,"x_max":503,"ha":503,"o":"m 472 486 q 433 221 433 120 q 433 69 441 5 l 321 -9 q 318 32 318 85 l 311 85 q 256 -14 149 -14 q 88 -14 57 32 q 25 79 25 159 q 25 274 106 366 q 187 459 356 463 l 378 479 z m 347 386 q 245 385 197 327 q 149 268 149 168 q 149 78 206 78 q 250 78 286 142 q 323 206 333 264 q 343 323 347 386 z"},"L":{"x_min":0,"x_max":469,"ha":469,"o":"m 442 106 l 426 0 l 41 0 q 50 59 82 333 q 102 516 103 636 l 238 636 q 230 588 200 333 q 185 186 172 99 q 288 99 442 106 z"},"3":{"x_min":0,"x_max":467,"ha":467,"o":"m 408 84 q 408 -44 286 -115 q 165 -186 9 -195 l 0 -114 q 105 -104 194 -57 q 282 -10 282 68 q 282 169 89 169 l 107 250 q 170 250 222 272 q 289 302 289 358 q 289 426 183 426 q 131 426 91 417 l 109 508 q 146 520 247 520 q 328 520 368 485 q 408 451 408 395 q 408 343 370 303 q 336 267 282 249 l 281 241 q 340 231 374 187 q 408 144 408 84 z"},";":{"x_min":0,"x_max":252,"ha":252,"o":""},"J":{"x_min":0,"x_max":399,"ha":399,"o":"m 370 636 q 360 571 326 276 q 309 114 239 45 q 179 -13 65 -13 q 24 -13 -15 -3 l 4 102 q 34 87 65 87 q 126 87 156 115 q 200 155 212 267 q 235 490 239 636 z"},"V":{"x_min":0,"x_max":573,"ha":573,"o":"m 594 636 q 594 591 451 314 q 309 36 305 0 l 178 0 q 178 75 109 315 q 40 555 40 636 l 184 636 q 184 567 225 380 q 266 193 266 136 l 273 136 q 276 160 367 370 q 458 579 458 636 z"},"\"":{"x_min":0,"x_max":453,"ha":453,"o":""},"7":{"x_min":0,"x_max":467,"ha":467,"o":"m 453 515 q 443 422 370 289 q 298 155 226 29 q 155 -98 148 -161 l 24 -151 q 31 -87 178 137 q 324 360 330 413 q 234 413 55 404 l 69 515 z"},"S":{"x_min":0,"x_max":505,"ha":505,"o":"m 473 630 l 444 521 q 385 545 312 545 q 194 545 194 474 q 194 446 220 426 q 242 407 307 378 q 458 312 458 188 q 458 -18 176 -18 q 87 -18 13 5 l 48 114 q 120 86 187 86 q 250 86 280 96 q 334 113 334 163 q 334 195 305 220 q 278 243 208 276 q 73 340 73 454 q 73 556 143 601 q 213 646 322 646 q 413 646 473 630 z"},"}":{"x_min":0,"x_max":353,"ha":353,"o":"m 321 288 l 313 215 q 196 203 196 128 q 196 106 206 39 q 215 -28 215 -59 q 215 -137 142 -187 q 83 -227 -5 -239 l -25 -162 q 122 -127 122 -23 q 122 0 112 56 q 103 113 103 132 q 103 177 138 212 q 174 247 220 247 l 221 253 q 192 253 164 274 q 125 302 125 351 q 125 382 154 448 q 182 514 182 547 q 182 642 64 666 l 96 743 q 151 735 190 717 q 284 676 284 595 q 284 555 250 470 q 217 385 217 357 q 217 326 255 307 q 284 292 321 288 z"},"Z":{"x_min":0,"x_max":500,"ha":500,"o":"m 485 636 l 468 535 q 409 459 294 294 q 180 129 179 106 l 179 99 q 276 99 440 110 l 425 0 l 11 0 l 28 100 q 87 172 208 341 q 328 510 330 532 l 330 540 q 219 540 74 529 l 88 636 z"},"x":{"x_min":0,"x_max":500,"ha":500,"o":"m 486 469 q 486 454 414 368 q 343 283 316 259 l 316 251 q 340 220 398 117 q 456 15 456 0 l 313 -5 q 313 11 281 83 q 250 155 232 187 l 226 187 q 209 166 171 90 q 133 14 133 0 l -2 -5 q -2 12 74 113 q 150 213 184 245 l 184 252 q 163 279 113 365 q 63 452 63 464 l 205 469 q 205 457 230 392 q 254 327 268 304 l 274 304 q 291 323 323 387 q 355 451 355 464 z"},")":{"x_min":0,"x_max":353,"ha":353,"o":"m 295 359 q 295 184 224 17 q 140 -180 0 -237 l -18 -170 q 44 -119 88 -48 q 194 121 194 354 q 194 574 67 676 l 108 743 q 163 714 202 666 q 295 551 295 359 z"},"&":{"x_min":0,"x_max":665,"ha":665,"o":"m 609 0 l 472 0 q 472 17 455 55 q 438 94 425 110 l 417 110 q 316 -14 186 -14 q 108 -14 62 31 q 17 77 17 147 q 17 290 171 356 l 171 363 q 103 423 103 490 q 103 563 160 605 q 218 646 295 646 q 357 646 401 613 q 446 580 446 521 q 446 429 340 378 l 339 371 q 379 347 447 268 l 454 268 q 475 299 483 372 l 600 372 q 598 352 563 296 q 528 241 500 215 l 500 208 q 524 182 567 104 q 609 27 609 0 z m 388 172 q 364 206 323 252 q 281 299 231 325 q 188 305 163 263 q 138 222 138 173 q 138 129 163 103 q 189 76 235 76 q 307 76 387 165 z m 348 503 q 348 567 288 567 q 256 567 233 547 q 211 527 211 497 q 211 443 282 407 q 348 438 348 503 z"},"_":{"x_min":0,"x_max":492,"ha":492,"o":"m 473 -250 l -32 -250 l -32 -162 l 473 -162 z"},"v":{"x_min":0,"x_max":479,"ha":479,"o":"m 480 469 q 480 428 374 228 q 268 28 265 0 l 138 0 q 138 71 89 239 q 39 406 39 464 l 172 469 q 172 421 200 292 q 228 164 228 121 l 233 121 q 235 139 295 278 q 355 417 355 464 z"},"O":{"x_min":0,"x_max":651,"ha":651,"o":"m 624 362 q 624 211 527 97 q 430 -18 283 -18 q 172 -18 99 64 q 27 146 27 271 q 27 423 125 537 q 222 650 368 650 q 479 650 552 569 q 624 487 624 362 z m 495 353 q 495 440 452 492 q 409 544 345 544 q 260 544 208 462 q 157 380 157 282 q 157 195 200 142 q 242 90 307 90 q 391 90 443 173 q 495 256 495 353 z"},"(":{"x_min":0,"x_max":353,"ha":353,"o":"m 357 676 q 295 627 251 558 q 146 392 146 152 q 146 -68 273 -170 l 232 -237 q 178 -208 139 -161 q 45 -45 45 146 q 45 322 117 489 q 201 686 340 743 z"},"C":{"x_min":0,"x_max":512,"ha":512,"o":"m 501 631 l 474 518 q 421 537 371 537 q 272 537 217 464 q 161 392 161 292 q 161 209 208 152 q 255 95 345 95 q 402 95 473 116 l 453 3 q 375 -13 321 -13 q 174 -13 100 72 q 27 157 27 277 q 27 432 132 538 q 238 645 396 645 q 452 645 501 631 z"},"W":{"x_min":0,"x_max":909,"ha":909,"o":"m 930 636 q 930 588 801 311 q 671 33 668 0 l 545 0 q 545 55 507 229 q 469 403 466 470 l 459 470 q 445 408 370 221 q 295 35 292 0 l 166 0 q 166 71 103 328 q 40 584 40 636 l 186 636 q 186 587 217 394 q 248 201 248 136 l 255 136 q 259 173 342 383 q 425 593 425 636 l 558 636 q 558 584 591 390 q 624 197 624 136 l 631 136 q 634 167 713 371 q 793 576 793 636 z"},"A":{"x_min":0,"x_max":594,"ha":594,"o":"m 559 0 l 411 0 q 411 53 387 183 l 173 183 q 156 141 143 107 q 112 27 110 0 l -29 0 q -28 18 112 313 q 251 607 254 636 l 429 636 q 429 581 494 320 q 559 59 559 0 z m 374 276 q 323 526 323 548 l 315 548 q 313 531 205 276 z"},"f":{"x_min":0,"x_max":338,"ha":338,"o":"m 377 694 l 357 610 q 331 613 303 613 q 270 613 254 581 q 238 548 228 456 q 270 456 342 459 l 329 362 q 258 365 219 365 q 208 209 190 7 q 172 -195 24 -223 l -2 -154 q 36 -125 54 -67 q 73 -9 86 117 q 100 243 110 365 q 83 365 29 362 l 43 459 q 91 456 120 456 q 146 701 302 701 q 349 701 377 694 z m 0 469 z"},"Q":{"x_min":0,"x_max":651,"ha":651,"o":"m 624 362 q 624 257 574 167 q 524 76 435 24 l 435 17 q 507 7 540 -43 q 573 -93 583 -211 l 447 -217 q 434 -92 407 -55 q 379 -18 283 -18 q 171 -18 99 64 q 27 146 27 271 q 27 425 124 538 q 222 650 368 650 q 479 650 552 569 q 624 487 624 362 z m 494 353 q 494 440 452 492 q 409 544 345 544 q 261 544 209 462 q 157 380 157 282 q 157 195 199 142 q 242 90 307 90 q 391 90 442 172 q 494 254 494 353 z"},"w":{"x_min":0,"x_max":764,"ha":764,"o":"m 761 469 q 761 433 661 232 q 562 31 558 0 l 450 0 q 450 30 425 156 q 399 282 392 335 l 384 335 q 366 281 309 153 q 252 25 250 0 l 142 0 q 142 40 93 232 q 43 424 43 463 l 176 469 q 176 423 197 291 q 219 158 219 121 l 226 121 q 229 152 292 294 q 355 436 355 464 l 464 464 q 464 431 491 293 q 519 155 519 121 l 525 121 q 527 144 584 283 q 640 422 640 463 z"},"-":{"x_min":0,"x_max":252,"ha":252,"o":"m 233 295 l 218 208 l 19 200 l 33 288 z"},"E":{"x_min":0,"x_max":503,"ha":503,"o":"m 483 636 l 468 529 q 331 537 217 537 q 214 484 205 376 q 301 376 412 382 l 401 280 q 294 285 195 285 q 185 186 178 99 q 305 99 451 107 l 435 0 l 41 0 q 51 67 82 333 q 100 510 103 636 z"},"s":{"x_min":0,"x_max":396,"ha":396,"o":"m 371 472 l 344 375 q 293 391 232 391 q 156 391 156 345 q 156 314 228 285 q 355 234 355 146 q 355 -13 132 -13 q 57 -13 2 1 l 28 98 q 84 78 142 78 q 246 78 246 126 q 246 160 174 191 q 115 217 86 242 q 47 277 47 328 q 47 405 103 443 q 160 481 243 481 q 325 481 371 472 z"},">":{"x_min":0,"x_max":504,"ha":504,"o":"m 451 279 l 444 211 l 82 7 l 53 99 l 338 240 l 339 251 l 84 392 l 131 483 z"},"l":{"x_min":0,"x_max":253,"ha":253,"o":"m 231 694 q 231 669 216 566 q 202 463 191 363 q 167 137 160 1 l 34 -6 q 34 2 50 120 q 65 237 79 363 q 99 553 99 687 z"},"8":{"x_min":0,"x_max":531,"ha":531,"o":"m 473 533 q 473 481 440 439 q 410 398 360 378 l 359 370 q 468 308 468 196 q 468 101 399 45 q 329 -12 231 -12 q 145 -12 92 36 q 39 84 39 158 q 39 226 79 277 q 120 328 186 355 l 187 363 q 109 413 109 502 q 109 580 169 624 q 229 667 312 667 q 383 667 428 629 q 473 590 473 533 z m 351 185 q 351 272 250 322 q 213 308 182 270 q 151 233 151 170 q 151 126 177 101 q 202 75 243 75 q 289 75 320 107 q 351 139 351 185 z m 372 520 q 372 553 352 573 q 331 592 298 592 q 261 592 237 570 q 213 548 213 512 q 213 445 297 401 q 330 418 351 451 q 372 483 372 520 z"},"\\":{"x_min":0,"x_max":246,"ha":246,"o":"m 194 -147 l 120 -147 q 120 -65 82 306 q 44 677 44 710 l 118 710 q 118 618 156 251 q 194 -115 194 -147 z"},"e":{"x_min":0,"x_max":481,"ha":481,"o":"m 463 363 q 463 217 150 211 q 150 147 174 115 q 198 83 258 83 q 336 83 425 133 l 410 37 q 337 -14 226 -14 q 126 -14 78 46 q 31 105 31 204 q 31 332 111 408 q 190 485 300 485 q 375 485 418 454 q 463 422 463 363 z m 354 353 q 354 400 282 400 q 240 400 203 370 q 166 339 155 282 q 354 286 354 353 z"},"b":{"x_min":0,"x_max":544,"ha":544,"o":"m 510 291 q 510 164 443 75 q 375 -14 264 -14 q 193 -14 160 19 l 154 19 l 143 0 l 34 -5 q 43 59 77 363 q 97 549 97 687 l 231 694 q 231 674 214 548 q 196 422 188 377 l 194 377 q 249 479 360 479 q 433 479 471 428 q 510 376 510 291 z m 387 265 q 387 388 308 388 q 260 388 219 325 q 178 262 170 188 l 160 98 q 196 76 239 76 q 313 76 350 132 q 387 188 387 265 z"},"%":{"x_min":0,"x_max":504,"ha":504,"o":"m 287 535 q 287 479 249 441 q 211 403 155 403 q 104 403 74 435 q 47 464 47 507 q 47 562 86 601 q 124 639 180 639 q 232 639 261 607 q 287 579 287 535 z m 445 126 q 445 71 407 33 q 369 -5 313 -5 q 261 -5 232 27 q 206 55 206 99 q 206 154 244 192 q 282 230 338 230 q 390 230 419 198 q 445 170 445 126 z m 491 631 q 486 587 284 322 q 82 56 76 0 l 8 5 q 13 52 215 319 q 417 585 422 636 z m 379 121 q 379 178 334 178 q 308 178 291 152 q 275 129 275 102 q 275 46 320 46 q 347 46 364 71 q 379 93 379 121 z m 221 530 q 221 586 176 586 q 149 586 132 561 q 117 538 117 510 q 117 455 162 455 q 189 455 206 480 q 221 502 221 530 z"},"m":{"x_min":0,"x_max":815,"ha":815,"o":"m 768 334 q 768 283 755 168 q 742 53 742 0 l 617 -5 q 617 26 633 141 q 649 256 649 296 q 649 348 637 368 q 625 388 594 388 q 548 388 510 333 q 473 277 464 188 q 453 79 450 0 l 325 -5 q 325 21 341 138 q 357 256 357 296 q 357 348 345 368 q 333 388 303 388 q 257 388 219 331 q 181 274 172 188 q 161 79 156 0 l 34 -5 q 68 248 68 337 q 68 388 60 462 l 181 474 q 185 436 185 377 l 191 377 q 246 479 355 479 q 411 479 440 451 q 469 423 471 377 l 477 377 q 535 479 645 479 q 713 479 741 443 q 768 406 768 334 z"},"#":{"x_min":0,"x_max":504,"ha":504,"o":"m 489 447 l 479 359 l 381 359 q 374 344 366 327 q 351 294 337 265 l 470 265 l 460 177 l 297 177 q 229 28 219 0 l 149 0 q 159 18 233 177 l 143 177 q 75 28 65 0 l -3 0 q 5 18 80 177 l 13 177 l 22 265 l 122 265 q 131 284 142 306 q 155 334 167 359 l 32 359 l 42 447 l 207 447 q 277 602 285 639 l 354 639 q 348 619 269 447 l 361 447 q 432 603 438 639 l 507 639 q 501 620 422 447 z m 320 359 l 228 359 q 221 344 212 326 q 197 293 184 265 l 275 265 q 285 285 295 307 q 308 334 320 359 z"},",":{"x_min":0,"x_max":252,"ha":252,"o":"m 195 87 q 195 -36 20 -190 l -20 -158 q 51 -84 60 2 q 32 21 32 62 q 32 104 60 134 q 87 163 125 163 q 162 163 178 140 q 195 118 195 87 z m 0 -5 z"},"n":{"x_min":0,"x_max":534,"ha":534,"o":"m 487 334 q 487 291 474 173 q 460 55 460 0 l 334 -5 q 334 19 351 135 q 367 250 367 298 q 367 349 352 369 q 337 388 303 388 q 261 388 221 330 q 181 272 172 188 q 162 83 156 0 l 34 -5 q 68 248 68 337 q 68 388 60 462 l 181 474 q 185 433 185 377 l 191 377 q 249 479 360 479 q 487 479 487 334 z"},"h":{"x_min":0,"x_max":535,"ha":535,"o":"m 488 334 q 488 291 475 173 q 461 55 461 0 l 335 -5 q 335 19 352 135 q 368 250 368 298 q 368 349 353 369 q 338 388 304 388 q 262 388 222 330 q 182 272 173 188 q 163 83 157 0 l 34 -5 q 42 59 76 363 q 96 549 96 687 l 230 694 q 230 673 212 545 q 193 417 186 377 l 192 377 q 250 479 361 479 q 488 479 488 334 z"},"z":{"x_min":0,"x_max":419,"ha":419,"o":"m 407 464 l 390 373 q 361 346 265 229 q 169 111 169 93 l 169 86 q 274 86 378 95 l 365 0 l 15 0 l 31 91 q 58 113 159 233 q 260 354 260 371 l 260 378 q 150 378 58 371 l 70 464 z"},"B":{"x_min":0,"x_max":571,"ha":571,"o":"m 532 205 q 532 -3 208 -3 q 156 -3 41 0 q 51 67 82 333 q 100 510 103 636 l 183 636 q 204 636 257 637 q 310 639 338 639 q 426 639 478 606 q 530 573 530 508 q 530 454 496 411 q 462 368 409 354 l 408 347 q 457 339 494 303 q 532 268 532 205 z m 406 198 q 406 283 253 283 q 222 283 193 281 q 183 179 177 93 q 198 89 229 89 q 324 89 365 115 q 406 142 406 198 z m 401 473 q 401 547 305 547 q 257 547 216 540 q 216 520 203 370 q 225 369 244 369 q 401 369 401 473 z"},"K":{"x_min":0,"x_max":576,"ha":576,"o":"m 565 636 q 565 620 467 512 q 368 405 323 374 l 322 367 q 364 344 449 188 q 535 31 535 0 l 388 0 q 388 29 320 162 q 252 296 218 296 l 198 296 q 186 185 176 0 l 41 0 q 51 67 82 333 q 100 510 103 636 l 239 636 q 229 573 207 382 l 217 382 q 238 382 329 501 q 420 620 420 636 z"},"R":{"x_min":0,"x_max":583,"ha":583,"o":"m 535 0 l 398 0 q 364 168 335 211 q 306 254 242 254 q 223 254 192 253 q 178 118 174 0 l 41 0 q 51 67 82 333 q 100 510 103 636 l 188 636 q 202 636 246 637 q 291 639 328 639 q 415 639 470 602 q 526 565 526 493 q 526 431 487 384 q 448 336 386 316 l 385 309 q 430 295 462 229 q 494 162 535 0 z m 403 464 q 403 546 294 546 q 251 546 218 540 q 216 497 202 342 q 227 341 245 341 q 403 341 403 464 z"},"T":{"x_min":0,"x_max":518,"ha":518,"o":"m 533 636 l 519 531 q 426 538 345 538 q 339 494 322 333 q 302 144 297 0 l 162 0 q 172 71 203 333 q 215 443 223 538 q 157 538 42 530 l 57 636 z"},"P":{"x_min":0,"x_max":553,"ha":553,"o":"m 532 478 q 532 361 447 301 q 361 241 219 241 q 201 241 191 242 q 182 150 176 0 l 41 0 q 51 63 82 333 q 101 508 103 636 l 188 636 q 205 636 254 637 q 304 639 339 639 q 419 639 476 596 q 532 554 532 478 z m 409 457 q 409 547 288 547 q 255 547 219 540 q 216 498 201 331 q 212 330 228 330 q 409 330 409 457 z"},"|":{"x_min":0,"x_max":252,"ha":252,"o":"m 175 -252 l 77 -252 q 82 126 82 230 q 82 329 76 757 l 174 757 q 169 378 169 274 q 169 175 175 -252 z"},"t":{"x_min":0,"x_max":364,"ha":364,"o":"m 337 459 l 324 362 q 255 365 211 365 q 190 232 190 168 q 190 119 201 101 q 212 83 240 83 q 283 83 331 113 l 314 24 q 271 -10 205 -10 q 136 -10 106 24 q 77 58 77 138 q 77 198 102 365 q 78 365 35 362 l 48 458 q 85 456 116 456 q 121 490 137 592 l 246 606 q 237 560 223 456 q 262 456 337 459 z m 0 469 z"},"M":{"x_min":0,"x_max":810,"ha":810,"o":"m 749 636 q 732 497 732 288 q 732 151 740 0 l 601 0 q 601 203 630 528 l 622 528 q 615 498 591 429 q 567 360 495 196 q 423 32 420 0 l 314 0 q 314 39 277 203 q 240 368 233 417 q 225 465 219 528 l 212 528 q 206 472 172 248 q 138 24 138 0 l 12 0 q 12 13 75 302 q 138 592 144 636 l 322 636 q 322 569 358 394 q 394 219 394 156 l 401 156 q 406 203 486 397 q 565 592 570 636 z"},"g":{"x_min":0,"x_max":526,"ha":526,"o":"m 542 531 l 522 440 q 450 440 430 418 l 430 412 q 452 377 452 339 q 452 255 389 208 q 326 162 236 162 q 189 162 160 169 q 136 149 136 125 q 136 101 157 93 q 178 85 319 85 q 468 85 468 -26 q 468 -129 381 -191 q 295 -252 174 -252 q 79 -252 31 -221 q -16 -190 -16 -128 q -16 -43 78 4 l 79 12 q 47 31 47 76 q 47 130 110 181 l 111 188 q 84 202 64 234 q 45 265 45 303 q 45 391 112 435 q 179 479 272 479 q 342 479 390 446 l 396 446 q 420 542 491 542 q 521 542 542 531 z m 350 -65 q 350 -37 329 -25 q 308 -14 234 -14 q 186 -14 143 -9 q 90 -41 90 -100 q 90 -181 184 -181 q 255 -181 303 -152 q 350 -124 350 -65 z m 337 330 q 337 368 313 387 q 289 407 258 407 q 219 407 191 380 q 164 353 164 308 q 164 270 188 251 q 212 231 243 231 q 281 231 309 258 q 337 285 337 330 z"},"j":{"x_min":0,"x_max":238,"ha":238,"o":"m 207 474 q 207 462 191 335 q 175 208 167 108 q 158 9 156 -14 q 137 -194 -4 -223 l -30 -154 q 6 -126 23 -73 q 41 -19 58 149 q 76 317 76 419 q 76 446 74 460 z m 243 621 q 243 583 216 555 q 189 528 151 528 q 121 528 105 547 q 89 565 89 592 q 89 631 116 657 q 143 684 181 684 q 243 684 243 621 z"},"i":{"x_min":0,"x_max":238,"ha":238,"o":"m 205 474 q 206 460 194 373 q 182 286 176 232 q 166 130 158 0 l 34 -5 q 43 59 64 232 q 74 325 74 405 q 74 438 72 459 z m 243 621 q 243 583 216 555 q 190 528 151 528 q 122 528 105 547 q 89 565 89 592 q 89 631 116 657 q 142 684 181 684 q 243 684 243 621 z"},"y":{"x_min":0,"x_max":471,"ha":471,"o":"m 467 469 q 467 400 370 219 q 273 38 259 -3 q 216 -124 159 -170 q 102 -216 3 -216 l 3 -122 q 64 -122 109 -83 q 154 -43 154 17 q 154 83 94 248 q 35 413 35 464 l 176 469 q 176 402 203 281 q 231 161 231 117 l 238 117 q 240 134 292 263 q 343 392 343 462 z"},"@":{"x_min":0,"x_max":983,"ha":983,"o":"m 919 343 q 919 202 852 94 q 784 -14 663 -14 q 606 -14 577 11 q 547 37 547 77 q 547 77 549 90 l 542 90 q 481 -14 393 -14 q 337 -14 309 32 q 280 78 280 147 q 280 261 349 362 q 417 462 527 462 q 586 462 609 426 l 615 426 l 625 449 l 717 459 q 688 350 653 178 q 651 160 651 142 q 651 72 706 72 q 756 72 786 148 q 816 223 816 327 q 816 457 747 542 q 677 627 534 627 q 372 627 273 487 q 175 346 175 178 q 175 41 246 -51 q 316 -143 453 -143 q 531 -143 599 -118 l 600 -213 q 532 -232 441 -232 q 260 -232 164 -113 q 69 6 69 179 q 69 392 200 556 q 332 720 542 720 q 726 720 823 612 q 919 503 919 343 z m 590 355 q 567 379 530 379 q 463 379 423 307 q 383 235 383 163 q 383 74 436 74 q 488 74 533 156 q 578 238 590 355 z"},".":{"x_min":0,"x_max":252,"ha":252,"o":"m 189 95 q 189 54 162 24 q 134 -5 92 -5 q 60 -5 43 15 q 26 35 26 64 q 26 106 54 134 q 83 163 124 163 q 189 163 189 95 z"},"p":{"x_min":0,"x_max":541,"ha":541,"o":"m 508 291 q 508 164 441 75 q 373 -14 262 -14 q 191 -14 160 19 l 154 19 q 141 -101 133 -221 l 6 -223 q 67 227 67 352 q 67 398 60 460 l 180 474 q 184 437 184 377 l 190 377 q 248 479 359 479 q 431 479 470 428 q 508 376 508 291 z m 385 265 q 385 388 306 388 q 258 388 217 325 q 176 262 168 188 l 159 98 q 194 76 237 76 q 312 76 348 132 q 385 188 385 265 z"},"X":{"x_min":0,"x_max":579,"ha":579,"o":"m 577 636 q 577 623 484 500 q 391 378 367 355 l 366 348 q 393 315 463 169 q 533 22 533 0 l 377 0 q 377 20 334 127 q 291 234 274 264 l 266 264 q 242 233 183 126 q 124 19 124 0 l -25 0 q -25 14 83 164 q 191 314 219 341 l 220 348 q 199 377 136 498 q 73 619 73 636 l 223 636 q 223 618 259 529 q 295 439 309 419 l 316 419 q 336 443 388 531 q 440 620 440 636 z"},"*":{"x_min":0,"x_max":504,"ha":504,"o":"m 451 520 q 451 489 424 481 q 397 473 346 473 q 326 473 294 475 l 288 462 q 368 381 368 353 q 368 333 345 313 q 321 292 301 292 q 263 292 246 435 l 233 435 q 170 307 137 307 q 118 307 99 323 q 81 340 81 360 q 81 393 199 466 l 197 480 q 152 486 77 502 q 61 508 61 535 q 61 558 75 580 q 88 602 108 602 q 135 602 221 526 l 233 534 q 225 617 225 652 q 225 700 283 700 q 326 700 326 668 q 326 638 278 531 l 287 521 q 387 582 415 582 q 431 582 441 562 q 451 541 451 520 z"},"Y":{"x_min":0,"x_max":520,"ha":520,"o":"m 545 636 q 545 615 462 497 q 378 379 340 320 q 302 261 297 214 q 286 106 285 0 l 148 0 q 177 186 177 228 q 177 298 104 460 q 32 622 32 636 l 178 636 q 178 605 219 483 q 261 362 261 319 l 268 319 q 271 352 343 477 q 414 602 414 636 z"},"c":{"x_min":0,"x_max":423,"ha":423,"o":"m 410 469 l 384 370 q 343 383 291 383 q 227 383 190 334 q 154 284 154 219 q 154 83 258 83 q 317 83 388 126 l 372 29 q 312 -14 228 -14 q 127 -14 79 49 q 31 112 31 206 q 31 318 108 398 q 185 478 310 478 q 367 478 410 469 z"},"!":{"x_min":0,"x_max":252,"ha":252,"o":"m 228 579 q 228 493 140 262 l 93 262 q 83 412 83 505 q 83 653 168 653 q 228 653 228 579 z m 177 95 q 177 54 149 24 q 121 -5 79 -5 q 47 -5 31 15 q 14 35 14 64 q 14 106 42 134 q 70 163 112 163 q 177 163 177 95 z"},"/":{"x_min":0,"x_max":267,"ha":267,"o":"m 283 710 q 280 677 158 306 q 37 -65 28 -147 l -55 -147 q -52 -116 69 251 q 191 618 200 710 z"},"[":{"x_min":0,"x_max":353,"ha":353,"o":"m 361 743 l 345 640 q 261 643 224 643 l 177 230 q 170 162 142 -143 q 176 -142 269 -134 l 253 -237 l 35 -232 l 90 230 q 100 330 137 736 z"},"6":{"x_min":0,"x_max":527,"ha":527,"o":"m 468 221 q 468 121 402 51 q 335 -20 234 -20 q 156 -20 103 36 q 49 92 49 202 q 49 395 146 521 q 243 647 431 656 l 437 576 q 231 553 180 349 l 187 349 q 230 398 310 398 q 386 398 427 346 q 468 293 468 221 z m 354 206 q 354 252 329 285 q 304 317 255 317 q 202 317 169 282 q 166 250 166 216 q 166 68 247 68 q 295 68 325 112 q 354 155 354 206 z"},"r":{"x_min":0,"x_max":370,"ha":370,"o":"m 386 469 l 347 354 q 314 364 279 364 q 190 364 180 267 q 165 120 156 0 l 34 -5 q 68 248 68 337 q 68 388 60 462 l 181 474 q 184 442 184 410 l 191 410 q 241 480 312 480 q 346 480 386 469 z"},"2":{"x_min":0,"x_max":451,"ha":451,"o":"m 393 104 l 373 0 l 20 0 l 39 98 q 93 129 130 158 q 167 188 196 218 q 225 248 240 278 q 255 309 255 342 q 255 425 138 425 q 110 425 70 418 l 88 509 q 128 520 199 520 q 287 520 332 481 q 377 442 377 372 q 377 339 367 309 q 357 280 340 254 q 323 228 300 205 q 277 183 251 164 q 225 146 197 130 q 169 115 152 104 l 152 97 q 254 97 393 104 z"},"{":{"x_min":0,"x_max":353,"ha":353,"o":"m 366 667 q 214 640 214 522 q 214 498 228 443 q 241 389 241 371 q 241 327 205 291 q 168 255 123 255 l 123 248 q 152 248 180 229 q 219 202 219 154 q 219 121 187 55 q 155 -11 155 -45 q 155 -128 284 -161 l 244 -239 q 59 -199 59 -95 q 59 -52 91 30 q 124 112 124 147 q 124 179 87 197 q 59 211 23 214 l 30 287 q 151 303 151 373 q 151 395 139 462 q 128 529 128 560 q 128 643 201 693 q 263 736 353 743 z"},"9":{"x_min":0,"x_max":524,"ha":524,"o":"m 465 285 q 465 87 365 -52 q 265 -190 74 -198 l 64 -117 q 182 -110 248 -34 q 313 42 334 155 l 330 155 q 282 104 206 104 q 130 104 90 157 q 49 210 49 284 q 49 383 115 451 q 180 520 281 520 q 357 520 411 458 q 465 397 465 285 z m 349 282 q 349 357 324 394 q 300 431 264 431 q 216 431 189 388 q 162 346 162 295 q 162 248 186 215 q 209 183 256 183 q 310 183 345 222 q 349 255 349 282 z"}," ":{"x_min":0,"x_max":211,"ha":211,"o":""},"I":{"x_min":0,"x_max":280,"ha":280,"o":"m 240 636 q 231 581 202 333 q 184 163 178 0 l 41 0 q 52 69 83 333 q 102 511 103 636 z"},"H":{"x_min":0,"x_max":634,"ha":634,"o":"m 594 636 q 585 581 556 333 q 536 146 532 0 l 396 0 q 406 76 430 280 l 197 280 q 186 174 177 0 l 41 0 q 51 74 82 333 q 100 506 103 636 l 239 636 q 229 572 206 382 l 442 382 q 454 493 458 636 z"},"4":{"x_min":0,"x_max":510,"ha":510,"o":"m 466 170 l 445 62 l 373 62 q 363 -29 354 -161 l 230 -161 q 238 -103 258 62 l 23 62 l 20 156 q 20 165 157 334 q 294 502 296 515 l 425 515 q 415 441 382 165 q 424 165 466 170 z m 306 408 l 298 408 q 297 397 207 285 q 117 173 116 167 l 115 160 q 173 160 271 163 q 283 229 306 408 z"},"~":{"x_min":0,"x_max":492,"ha":492,"o":"m 490 298 q 407 169 320 169 q 288 169 243 186 q 198 202 168 202 q 113 202 56 140 l 3 184 q 86 318 173 318 q 205 318 253 303 q 301 287 331 287 q 386 287 438 342 z"},"D":{"x_min":0,"x_max":616,"ha":616,"o":"m 589 366 q 589 213 489 104 q 389 -6 234 -6 q 161 -6 42 0 q 51 67 82 333 q 101 510 103 636 l 189 636 q 209 636 248 637 q 288 639 309 639 q 449 639 519 561 q 589 484 589 366 z m 460 351 q 460 435 414 488 q 368 541 274 541 q 251 541 217 537 q 214 492 199 333 q 187 216 179 101 q 208 95 241 95 q 344 95 402 171 q 460 247 460 351 z"},"^":{"x_min":0,"x_max":492,"ha":492,"o":"m 464 333 l 376 292 l 269 582 l 258 582 l 91 292 l 12 333 l 244 692 l 308 692 z"},"0":{"x_min":0,"x_max":550,"ha":550,"o":"m 491 299 q 491 224 475 165 q 458 105 426 64 q 395 23 348 2 q 302 -20 242 -20 q 151 -20 105 35 q 59 90 59 193 q 59 235 65 276 q 71 317 84 354 q 97 391 117 423 q 137 454 165 477 q 193 500 229 513 q 266 526 311 526 q 355 526 389 510 q 423 494 446 464 q 469 435 480 393 q 491 351 491 299 z m 374 286 q 374 309 371 335 q 368 360 359 382 q 351 404 334 418 q 317 432 290 432 q 259 432 238 412 q 216 391 203 359 q 189 326 183 285 q 177 245 177 204 q 177 138 197 106 q 218 75 262 75 q 292 75 314 93 q 335 111 349 141 q 362 171 368 209 q 374 247 374 286 z"},"F":{"x_min":0,"x_max":479,"ha":479,"o":"m 491 636 l 476 529 q 333 537 216 537 q 213 484 202 352 q 292 352 406 356 l 395 255 q 280 260 192 260 q 178 122 171 0 l 41 0 q 51 67 82 333 q 101 510 103 636 z"},"`":{"x_min":0,"x_max":274,"ha":274,"o":"m 239 530 l 154 530 q 154 538 101 610 q 48 683 47 688 l 171 688 q 171 683 205 611 q 239 538 239 530 z"},"k":{"x_min":0,"x_max":497,"ha":497,"o":"m 493 463 q 493 446 435 377 q 376 308 335 276 l 334 270 q 386 211 424 121 q 462 32 462 0 l 329 -5 q 329 18 305 82 q 281 146 249 189 q 224 162 205 133 q 161 65 157 0 l 34 -5 q 43 59 78 363 q 97 544 97 687 l 230 694 q 230 673 216 573 q 201 473 170 200 l 178 200 q 194 237 280 347 q 356 444 356 469 z"},"u":{"x_min":0,"x_max":530,"ha":530,"o":"m 496 474 q 462 203 462 114 q 462 63 470 4 l 350 -10 q 347 30 347 87 l 340 87 q 285 -15 173 -15 q 47 -15 47 130 q 47 173 60 291 q 73 409 73 464 l 200 474 q 200 450 183 333 q 167 217 167 169 q 167 118 180 97 q 194 77 228 77 q 271 77 311 135 q 351 192 359 276 q 373 412 373 464 z"},"]":{"x_min":0,"x_max":353,"ha":353,"o":"m 293 737 l 238 275 q 228 176 191 -231 l -33 -237 l -17 -134 q 67 -137 104 -137 l 151 275 q 159 343 187 649 q 152 648 60 640 l 75 743 z"},"U":{"x_min":0,"x_max":635,"ha":635,"o":"m 601 636 q 592 568 563 308 q 529 -17 277 -17 q 169 -17 112 36 q 55 89 55 231 q 55 263 59 303 q 75 457 85 636 l 221 636 q 210 559 182 317 q 177 275 177 237 q 177 150 205 117 q 233 83 290 83 q 358 83 396 131 q 435 179 449 318 q 466 479 471 636 z"},"o":{"x_min":0,"x_max":535,"ha":535,"o":"m 504 268 q 504 148 428 65 q 352 -19 233 -19 q 150 -19 90 42 q 31 103 31 203 q 31 321 107 403 q 183 485 303 485 q 386 485 445 427 q 504 368 504 268 z m 380 257 q 380 317 354 356 q 328 395 283 395 q 226 395 190 337 q 154 279 154 209 q 154 148 180 110 q 207 71 252 71 q 311 71 346 128 q 380 186 380 257 z"},"N":{"x_min":0,"x_max":646,"ha":646,"o":"m 605 636 q 596 582 567 333 q 547 149 538 0 l 424 0 q 424 23 314 225 q 200 434 188 502 l 180 502 q 186 465 186 428 q 186 371 177 289 q 164 168 155 0 l 41 0 q 51 69 82 333 q 101 511 103 636 l 245 636 q 245 604 344 414 q 448 215 459 154 l 466 154 q 460 182 460 214 q 460 281 469 370 q 484 511 486 636 z"},"+":{"x_min":0,"x_max":504,"ha":504,"o":"m 446 288 l 438 200 l 289 200 l 272 34 l 188 34 l 206 200 l 58 200 l 67 288 l 215 288 l 232 454 l 316 454 l 299 288 z"},"G":{"x_min":0,"x_max":588,"ha":588,"o":"m 540 316 q 534 282 520 165 q 514 110 513 17 q 395 -13 321 -13 q 175 -13 101 70 q 27 154 27 274 q 27 433 135 539 q 244 645 404 645 q 479 645 534 630 l 507 515 q 437 535 378 535 q 277 535 218 463 q 159 392 159 287 q 159 202 206 144 q 252 85 339 85 q 366 85 402 91 q 401 100 401 125 q 401 147 405 211 q 409 274 409 316 z"},"q":{"x_min":0,"x_max":543,"ha":543,"o":"m 511 472 q 502 424 469 140 q 457 21 438 -217 l 316 -223 q 323 -172 342 -1 q 347 44 358 89 l 353 89 q 296 -13 185 -13 q 112 -13 73 39 q 35 90 35 176 q 35 303 102 392 q 170 481 281 481 q 352 481 388 452 l 394 452 l 412 464 z m 385 370 q 349 392 306 392 q 233 392 196 336 q 158 280 158 202 q 158 79 237 79 q 285 79 326 142 q 367 205 375 278 z"},"d":{"x_min":0,"x_max":543,"ha":543,"o":"m 534 690 q 534 678 518 585 q 501 492 488 365 q 476 239 476 127 q 476 61 479 0 l 367 -5 q 361 35 361 90 l 354 89 q 296 -13 185 -13 q 112 -13 73 39 q 35 90 35 176 q 35 303 102 392 q 170 481 281 481 q 347 481 383 449 l 390 449 q 399 551 406 686 z m 384 370 q 349 392 306 392 q 232 392 195 335 q 159 279 159 202 q 159 79 238 79 q 285 79 326 142 q 366 205 374 278 z"},"1":{"x_min":0,"x_max":363,"ha":363,"o":"m 295 515 q 274 357 260 219 q 249 116 242 0 l 115 0 q 130 109 142 219 q 154 338 155 369 l 63 338 l 44 388 l 236 515 z"},"5":{"x_min":0,"x_max":470,"ha":470,"o":"m 412 515 l 396 408 q 310 417 179 417 q 171 388 155 284 q 406 284 406 105 q 406 -23 293 -97 q 180 -171 30 -179 l 20 -97 q 124 -87 200 -44 q 276 0 276 81 q 276 145 223 170 q 169 196 48 196 q 63 259 76 316 q 104 454 110 515 z"}}}
